<?xml version="1.0" encoding="UTF-8"?>
<svg version="1.1" xmlns="http://www.w3.org/2000/svg" width="512" height="512">
<path d="M0 0 C1.80516698 -0.00373917 3.61033235 -0.00834175 5.41549516 -0.01373065 C10.36397101 -0.025943 15.31237916 -0.02570226 20.26086664 -0.02334189 C25.60253086 -0.02293328 30.94417351 -0.03397707 36.28582764 -0.04345703 C46.74654204 -0.06005814 57.2072339 -0.06556617 67.66796038 -0.06668179 C76.17211936 -0.06763265 84.67627092 -0.07174483 93.18042755 -0.07808304 C117.29924181 -0.09569272 141.41803828 -0.10492229 165.53685901 -0.10342209 C166.83665903 -0.10334218 168.13645906 -0.10326227 169.47564697 -0.10317993 C171.42773155 -0.10305729 171.42773155 -0.10305729 173.41925219 -0.10293217 C194.51020418 -0.10211926 215.60108476 -0.12125887 236.69201609 -0.14945666 C258.35583662 -0.17819152 280.01962232 -0.19199664 301.68346238 -0.19026911 C313.8429378 -0.18960544 326.00233833 -0.19508793 338.16179657 -0.21662521 C348.51439215 -0.23484484 358.86687891 -0.23917783 369.21948358 -0.22560637 C374.49907754 -0.21908085 379.77846276 -0.2189447 385.0580368 -0.23631287 C389.89672469 -0.25206664 394.73503873 -0.24915631 399.57371762 -0.2317446 C401.31862293 -0.22867981 403.0635563 -0.23228734 404.8084285 -0.24346475 C420.0020463 -0.33430124 432.65728369 1.72352329 444.37701416 12.26742554 C451.37603867 19.66014517 455.49111067 28.9159375 455.51402855 39.08285522 C455.51910309 40.27822371 455.52417763 41.47359221 455.52940595 42.70518398 C455.53015259 44.67732168 455.53015259 44.67732168 455.53091431 46.68930054 C455.53493001 48.0990082 455.53936841 49.50871471 455.54419386 50.91841984 C455.55615346 54.79695407 455.5618064 58.67547588 455.56637502 62.55402493 C455.57233351 66.73555392 455.58394281 70.91706807 455.59466553 75.09858704 C455.61918496 85.20013769 455.63381658 95.30169327 455.64672559 105.40326452 C455.65043804 108.25695801 455.65441124 111.11065102 455.65847826 113.96434402 C455.68371671 131.68927272 455.70576763 149.4142022 455.71820641 167.1391449 C455.72113606 171.2445679 455.72409773 175.34999088 455.72711182 179.45541382 C455.72785787 180.47578495 455.72860392 181.49615609 455.72937258 182.54744756 C455.74202177 199.07081405 455.77523916 215.59407282 455.81691365 232.11738896 C455.85935957 249.08584047 455.88290456 266.05423687 455.88812697 283.02274132 C455.8915382 292.54814253 455.90325939 302.07337546 455.93622971 311.59872437 C455.96426798 319.71243568 455.97521302 327.82594419 455.96403424 335.93970019 C455.95885712 340.07697111 455.96167228 344.21381761 455.98649979 348.35102654 C456.00907726 352.14509977 456.00818752 355.9384458 455.98929591 359.7325325 C455.98519557 361.74163025 456.00557871 363.750733 456.0270828 365.75971985 C455.91974518 378.10818836 451.95660406 388.29542196 443.37701416 397.26742554 C435.19938424 404.74268234 426.00402037 408.39673399 414.9672699 408.38768005 C413.67303101 408.38905472 412.37879211 408.39042938 411.04533386 408.3918457 C409.61837745 408.388307 408.19142128 408.38467219 406.76446533 408.38095093 C405.25635785 408.38066874 403.74825023 408.3808274 402.24014282 408.38139343 C398.15171426 408.38168019 394.06331507 408.3758031 389.97489333 408.36881948 C385.70010639 408.36256571 381.42531876 408.36198053 377.15052795 408.36079407 C369.05813945 408.35768673 360.96576447 408.34948137 352.87338191 408.33944458 C343.65941652 408.32826492 334.44545049 408.32276832 325.23148 408.31774914 C306.27998373 408.30729827 287.32850003 408.28971037 268.37701416 408.26742554 C268.47279755 408.90175003 268.56858093 409.53607452 268.66726685 410.18962097 C269.67827241 416.89066584 270.68330277 423.59258883 271.68511963 430.29501343 C272.05798764 432.7844935 272.43229597 435.27375835 272.8081665 437.76278687 C274.99318646 452.23927241 277.02973253 466.68686933 278.37701416 481.26742554 C279.28955334 481.25315018 279.28955334 481.25315018 280.22052765 481.23858643 C285.7440924 481.1536889 291.267267 481.09098754 296.7913208 481.04769897 C298.87766655 481.0276364 300.96395643 481.00037964 303.05010986 480.96566772 C306.05635394 480.91691395 309.06185185 480.89440287 312.06842041 480.87680054 C312.9947377 480.8561554 313.92105499 480.83551025 314.8754425 480.8142395 C320.92054676 480.81216499 324.44638581 481.70261445 329.37701416 485.26742554 C332.92226425 489.50921069 334.05266043 493.54541423 333.75201416 499.06039429 C333.00758573 503.4416658 331.42007606 506.80877482 327.74046135 509.43584776 C322.1583978 512.39593635 317.45892885 512.83596795 311.20562744 512.77536011 C310.20804979 512.78160007 309.21047215 512.78784003 308.18266487 512.79426908 C304.85397537 512.8101703 301.52602105 512.79760564 298.19732666 512.78500366 C295.80521214 512.79042603 293.41310096 512.79754933 291.02099609 512.8062439 C285.20666874 512.82257532 279.39257334 512.82020515 273.57823896 512.80859333 C268.85117366 512.79954521 264.12416621 512.79834095 259.39709473 512.8026886 C258.72330029 512.80330153 258.04950585 512.80391446 257.35529339 512.80454597 C255.9863235 512.80582492 254.61735362 512.80712178 253.24838376 512.80843633 C240.42345491 512.81983171 227.59864058 512.80674484 214.77373052 512.78523487 C203.77880419 512.76736479 192.78404681 512.7704692 181.78912354 512.78890991 C169.00885425 512.8103351 156.22868524 512.81873318 143.4484005 512.80646086 C142.08457821 512.80518671 140.72075591 512.80392923 139.35693359 512.8026886 C138.68597629 512.8020715 138.01501898 512.80145439 137.32372963 512.80081859 C132.60450775 512.79737062 127.88534969 512.80318207 123.1661377 512.81260681 C116.80980099 512.82416859 110.45378307 512.81613299 104.09748077 512.79302979 C101.76585672 512.78774454 99.4342058 512.78925328 97.10259247 512.79808044 C93.91750077 512.80902625 90.73342783 512.79528282 87.54840088 512.77536011 C86.62776918 512.78428299 85.70713749 512.79320588 84.75860786 512.80239916 C78.89227487 512.73132403 74.22089779 511.72573207 69.37701416 508.26742554 C65.73968353 504.1164772 64.70897129 499.94939864 64.99810791 494.47445679 C65.90084367 489.21625367 68.10424212 486.17934168 72.41241455 483.09262085 C76.93948201 480.63790445 81.19985938 480.7587115 86.24810791 480.87680054 C87.17043716 480.88246033 88.09276642 480.88812012 89.04304504 480.89395142 C91.96741274 480.91620917 94.89052147 480.96638507 97.81451416 481.01742554 C99.80603283 481.03750427 101.79757085 481.05575263 103.78912354 481.07211304 C108.65223333 481.11603913 113.51441084 481.18499241 118.37701416 481.26742554 C118.46773193 480.37740845 118.55844971 479.48739136 118.6519165 478.57040405 C120.21334486 464.03211163 122.64798069 449.63160503 125.00201416 435.20492554 C125.42682808 432.58453708 125.85130981 429.96409474 126.27545166 427.34359741 C127.30547906 420.98424759 128.3395968 414.62557376 129.37701416 408.26742554 C128.62016956 408.27111271 127.86332497 408.27479988 127.08354568 408.27859879 C108.62813783 408.36711583 90.17277261 408.43321569 71.71719742 408.47467422 C62.79203902 408.49525857 53.86702273 408.52329978 44.94195557 408.56918335 C37.1586315 408.60917801 29.3754104 408.63488832 21.59198642 408.64377952 C17.47451697 408.648973 13.35734198 408.66109235 9.23996735 408.69034576 C5.35591022 408.71771508 1.47226582 408.72582768 -2.41187859 408.71985626 C-3.82913654 408.72094697 -5.24640987 408.72877205 -6.66358376 408.74424744 C-20.26833699 408.88538675 -31.89233811 405.92117371 -42.62298584 397.26742554 C-53.85315166 385.69752361 -56.92850341 374.47975082 -56.89041138 358.74380493 C-56.89415067 357.35966773 -56.8987533 355.97553263 -56.90414202 354.59140086 C-56.91635305 350.79749991 -56.9161138 347.00368727 -56.91375327 343.20977116 C-56.91334462 339.11419891 -56.92438885 335.01865479 -56.93386841 330.9230957 C-56.95046909 322.90254552 -56.95597754 314.88202474 -56.95709316 306.86145881 C-56.9580441 300.34045305 -56.9621567 293.81945698 -56.96849442 287.29845428 C-56.98610448 268.80211916 -56.99533368 250.30580722 -56.99383347 231.80946365 C-56.99375355 230.81268092 -56.99367364 229.81589818 -56.99359131 228.78890991 C-56.99350955 227.79090727 -56.99342779 226.79290464 -56.99334355 225.76465949 C-56.99253077 209.59324651 -57.01166696 193.42192669 -57.03986804 177.25054064 C-57.06860947 160.63794698 -57.08240763 144.02539873 -57.08068049 127.41277957 C-57.08001701 118.08925615 -57.0854908 108.7658304 -57.10703659 99.44232941 C-57.12526497 91.50360907 -57.12958214 83.56503068 -57.11601774 75.62629846 C-57.10949637 71.57830504 -57.10934063 67.5305838 -57.12672424 63.48261642 C-57.14249717 59.77143916 -57.13954887 56.06074893 -57.12215598 52.34958324 C-57.1176537 50.38265812 -57.13271026 48.41571763 -57.14863527 46.44885182 C-57.04181681 32.65166169 -52.23318708 22.19649453 -42.99798584 12.07992554 C-30.80412802 0.39900246 -15.83020214 -0.03106233 0 0 Z " fill="#FEFEFE" transform="translate(56.62298583984375,-0.267425537109375)"/>
<path d="M0 0 C1.80516698 -0.00373917 3.61033235 -0.00834175 5.41549516 -0.01373065 C10.36397101 -0.025943 15.31237916 -0.02570226 20.26086664 -0.02334189 C25.60253086 -0.02293328 30.94417351 -0.03397707 36.28582764 -0.04345703 C46.74654204 -0.06005814 57.2072339 -0.06556617 67.66796038 -0.06668179 C76.17211936 -0.06763265 84.67627092 -0.07174483 93.18042755 -0.07808304 C117.29924181 -0.09569272 141.41803828 -0.10492229 165.53685901 -0.10342209 C166.83665903 -0.10334218 168.13645906 -0.10326227 169.47564697 -0.10317993 C171.42773155 -0.10305729 171.42773155 -0.10305729 173.41925219 -0.10293217 C194.51020418 -0.10211926 215.60108476 -0.12125887 236.69201609 -0.14945666 C258.35583662 -0.17819152 280.01962232 -0.19199664 301.68346238 -0.19026911 C313.8429378 -0.18960544 326.00233833 -0.19508793 338.16179657 -0.21662521 C348.51439215 -0.23484484 358.86687891 -0.23917783 369.21948358 -0.22560637 C374.49907754 -0.21908085 379.77846276 -0.2189447 385.0580368 -0.23631287 C389.89672469 -0.25206664 394.73503873 -0.24915631 399.57371762 -0.2317446 C401.31862293 -0.22867981 403.0635563 -0.23228734 404.8084285 -0.24346475 C420.0020463 -0.33430124 432.65728369 1.72352329 444.37701416 12.26742554 C451.37603867 19.66014517 455.49111067 28.9159375 455.51402855 39.08285522 C455.51910309 40.27822371 455.52417763 41.47359221 455.52940595 42.70518398 C455.53015259 44.67732168 455.53015259 44.67732168 455.53091431 46.68930054 C455.53493001 48.0990082 455.53936841 49.50871471 455.54419386 50.91841984 C455.55615346 54.79695407 455.5618064 58.67547588 455.56637502 62.55402493 C455.57233351 66.73555392 455.58394281 70.91706807 455.59466553 75.09858704 C455.61918496 85.20013769 455.63381658 95.30169327 455.64672559 105.40326452 C455.65043804 108.25695801 455.65441124 111.11065102 455.65847826 113.96434402 C455.68371671 131.68927272 455.70576763 149.4142022 455.71820641 167.1391449 C455.72113606 171.2445679 455.72409773 175.34999088 455.72711182 179.45541382 C455.72785787 180.47578495 455.72860392 181.49615609 455.72937258 182.54744756 C455.74202177 199.07081405 455.77523916 215.59407282 455.81691365 232.11738896 C455.85935957 249.08584047 455.88290456 266.05423687 455.88812697 283.02274132 C455.8915382 292.54814253 455.90325939 302.07337546 455.93622971 311.59872437 C455.96426798 319.71243568 455.97521302 327.82594419 455.96403424 335.93970019 C455.95885712 340.07697111 455.96167228 344.21381761 455.98649979 348.35102654 C456.00907726 352.14509977 456.00818752 355.9384458 455.98929591 359.7325325 C455.98519557 361.74163025 456.00557871 363.750733 456.0270828 365.75971985 C455.91974518 378.10818836 451.95660406 388.29542196 443.37701416 397.26742554 C435.19938424 404.74268234 426.00402037 408.39673399 414.9672699 408.38768005 C413.67303101 408.38905472 412.37879211 408.39042938 411.04533386 408.3918457 C409.61837745 408.388307 408.19142128 408.38467219 406.76446533 408.38095093 C405.25635785 408.38066874 403.74825023 408.3808274 402.24014282 408.38139343 C398.15171426 408.38168019 394.06331507 408.3758031 389.97489333 408.36881948 C385.70010639 408.36256571 381.42531876 408.36198053 377.15052795 408.36079407 C369.05813945 408.35768673 360.96576447 408.34948137 352.87338191 408.33944458 C343.65941652 408.32826492 334.44545049 408.32276832 325.23148 408.31774914 C306.27998373 408.30729827 287.32850003 408.28971037 268.37701416 408.26742554 C268.47279755 408.90175003 268.56858093 409.53607452 268.66726685 410.18962097 C269.67827241 416.89066584 270.68330277 423.59258883 271.68511963 430.29501343 C272.05798764 432.7844935 272.43229597 435.27375835 272.8081665 437.76278687 C274.99318646 452.23927241 277.02973253 466.68686933 278.37701416 481.26742554 C279.28955334 481.25315018 279.28955334 481.25315018 280.22052765 481.23858643 C285.7440924 481.1536889 291.267267 481.09098754 296.7913208 481.04769897 C298.87766655 481.0276364 300.96395643 481.00037964 303.05010986 480.96566772 C306.05635394 480.91691395 309.06185185 480.89440287 312.06842041 480.87680054 C312.9947377 480.8561554 313.92105499 480.83551025 314.8754425 480.8142395 C320.92054676 480.81216499 324.44638581 481.70261445 329.37701416 485.26742554 C332.92226425 489.50921069 334.05266043 493.54541423 333.75201416 499.06039429 C333.00758573 503.4416658 331.42007606 506.80877482 327.74046135 509.43584776 C322.1583978 512.39593635 317.45892885 512.83596795 311.20562744 512.77536011 C310.20804979 512.78160007 309.21047215 512.78784003 308.18266487 512.79426908 C304.85397537 512.8101703 301.52602105 512.79760564 298.19732666 512.78500366 C295.80521214 512.79042603 293.41310096 512.79754933 291.02099609 512.8062439 C285.20666874 512.82257532 279.39257334 512.82020515 273.57823896 512.80859333 C268.85117366 512.79954521 264.12416621 512.79834095 259.39709473 512.8026886 C258.72330029 512.80330153 258.04950585 512.80391446 257.35529339 512.80454597 C255.9863235 512.80582492 254.61735362 512.80712178 253.24838376 512.80843633 C240.42345491 512.81983171 227.59864058 512.80674484 214.77373052 512.78523487 C203.77880419 512.76736479 192.78404681 512.7704692 181.78912354 512.78890991 C169.00885425 512.8103351 156.22868524 512.81873318 143.4484005 512.80646086 C142.08457821 512.80518671 140.72075591 512.80392923 139.35693359 512.8026886 C138.68597629 512.8020715 138.01501898 512.80145439 137.32372963 512.80081859 C132.60450775 512.79737062 127.88534969 512.80318207 123.1661377 512.81260681 C116.80980099 512.82416859 110.45378307 512.81613299 104.09748077 512.79302979 C101.76585672 512.78774454 99.4342058 512.78925328 97.10259247 512.79808044 C93.91750077 512.80902625 90.73342783 512.79528282 87.54840088 512.77536011 C86.62776918 512.78428299 85.70713749 512.79320588 84.75860786 512.80239916 C78.89227487 512.73132403 74.22089779 511.72573207 69.37701416 508.26742554 C65.73968353 504.1164772 64.70897129 499.94939864 64.99810791 494.47445679 C65.90084367 489.21625367 68.10424212 486.17934168 72.41241455 483.09262085 C76.93948201 480.63790445 81.19985938 480.7587115 86.24810791 480.87680054 C87.17043716 480.88246033 88.09276642 480.88812012 89.04304504 480.89395142 C91.96741274 480.91620917 94.89052147 480.96638507 97.81451416 481.01742554 C99.80603283 481.03750427 101.79757085 481.05575263 103.78912354 481.07211304 C108.65223333 481.11603913 113.51441084 481.18499241 118.37701416 481.26742554 C118.46773193 480.37740845 118.55844971 479.48739136 118.6519165 478.57040405 C120.21334486 464.03211163 122.64798069 449.63160503 125.00201416 435.20492554 C125.42682808 432.58453708 125.85130981 429.96409474 126.27545166 427.34359741 C127.30547906 420.98424759 128.3395968 414.62557376 129.37701416 408.26742554 C128.62016956 408.27111271 127.86332497 408.27479988 127.08354568 408.27859879 C108.62813783 408.36711583 90.17277261 408.43321569 71.71719742 408.47467422 C62.79203902 408.49525857 53.86702273 408.52329978 44.94195557 408.56918335 C37.1586315 408.60917801 29.3754104 408.63488832 21.59198642 408.64377952 C17.47451697 408.648973 13.35734198 408.66109235 9.23996735 408.69034576 C5.35591022 408.71771508 1.47226582 408.72582768 -2.41187859 408.71985626 C-3.82913654 408.72094697 -5.24640987 408.72877205 -6.66358376 408.74424744 C-20.26833699 408.88538675 -31.89233811 405.92117371 -42.62298584 397.26742554 C-53.85315166 385.69752361 -56.92850341 374.47975082 -56.89041138 358.74380493 C-56.89415067 357.35966773 -56.8987533 355.97553263 -56.90414202 354.59140086 C-56.91635305 350.79749991 -56.9161138 347.00368727 -56.91375327 343.20977116 C-56.91334462 339.11419891 -56.92438885 335.01865479 -56.93386841 330.9230957 C-56.95046909 322.90254552 -56.95597754 314.88202474 -56.95709316 306.86145881 C-56.9580441 300.34045305 -56.9621567 293.81945698 -56.96849442 287.29845428 C-56.98610448 268.80211916 -56.99533368 250.30580722 -56.99383347 231.80946365 C-56.99375355 230.81268092 -56.99367364 229.81589818 -56.99359131 228.78890991 C-56.99350955 227.79090727 -56.99342779 226.79290464 -56.99334355 225.76465949 C-56.99253077 209.59324651 -57.01166696 193.42192669 -57.03986804 177.25054064 C-57.06860947 160.63794698 -57.08240763 144.02539873 -57.08068049 127.41277957 C-57.08001701 118.08925615 -57.0854908 108.7658304 -57.10703659 99.44232941 C-57.12526497 91.50360907 -57.12958214 83.56503068 -57.11601774 75.62629846 C-57.10949637 71.57830504 -57.10934063 67.5305838 -57.12672424 63.48261642 C-57.14249717 59.77143916 -57.13954887 56.06074893 -57.12215598 52.34958324 C-57.1176537 50.38265812 -57.13271026 48.41571763 -57.14863527 46.44885182 C-57.04181681 32.65166169 -52.23318708 22.19649453 -42.99798584 12.07992554 C-30.80412802 0.39900246 -15.83020214 -0.03106233 0 0 Z M-23.50345498 35.5899033 C-26.09244321 39.46928305 -26.87352545 42.12674337 -26.88025475 46.8341198 C-26.88670364 47.97397076 -26.89315253 49.11382171 -26.89979684 50.28821361 C-26.89669964 51.54091867 -26.89360244 52.79362373 -26.89041138 54.08428955 C-26.89414731 55.42815314 -26.8987486 56.77201455 -26.90414202 58.1158725 C-26.91639452 61.81218936 -26.91610892 65.50841585 -26.91375327 69.20474839 C-26.91334567 73.18984773 -26.92437876 77.17491787 -26.93386841 81.16000366 C-26.95049151 88.96873197 -26.95597854 96.77743008 -26.95709316 104.58617459 C-26.95804298 110.93233331 -26.96214996 117.27848204 -26.96849442 123.6246376 C-26.98611011 141.61065035 -26.99533273 159.59663922 -26.99383347 177.58266066 C-26.99375355 178.55258326 -26.99367364 179.52250587 -26.99359131 180.52182007 C-26.99350955 181.49292462 -26.99342779 182.46402916 -26.99334355 183.46456112 C-26.99253047 199.20628645 -27.01167274 214.94791614 -27.03986804 230.6896138 C-27.06857939 246.84669355 -27.08240931 263.00372662 -27.08068049 279.16083252 C-27.080016 288.23440789 -27.08553409 297.30788298 -27.10703659 306.38143539 C-27.12522537 314.10627547 -27.12961472 321.83096981 -27.11601774 329.555822 C-27.10947649 333.49786386 -27.10941231 337.43962595 -27.12672424 341.38164139 C-27.14240932 344.99029217 -27.13963874 348.5984403 -27.12215598 352.20707847 C-27.11761664 354.13111742 -27.13277922 356.05517168 -27.14863527 357.97915065 C-27.0973915 364.35881218 -27.01875936 368.47095823 -22.62298584 373.26742554 C-17.32905934 377.9311227 -14.12144212 378.41187821 -7.22024536 378.38768005 C-6.34057275 378.38853448 -5.46090015 378.3893889 -4.55457079 378.39026922 C-1.58956251 378.39192407 1.37538994 378.38640256 4.34039307 378.38095093 C6.45888772 378.38066903 8.57738248 378.38082684 10.69587708 378.38139343 C16.46211217 378.38168131 22.22832662 378.37578614 27.9945569 378.36881948 C34.01505715 378.36258433 40.03555782 378.36198201 46.05606079 378.36079407 C57.46348184 378.35768123 68.87089334 378.34946847 80.27831018 378.33944458 C95.68839504 378.32619631 111.0984825 378.32078315 126.50857162 378.31494236 C150.79805962 378.30552855 175.08752748 378.28560932 199.37701416 378.26742554 C199.37701416 320.84742554 199.37701416 263.42742554 199.37701416 204.26742554 C273.95701416 204.26742554 348.53701416 204.26742554 425.37701416 204.26742554 C425.43888916 177.66117554 425.50076416 151.05492554 425.56451416 123.64242554 C425.59182617 115.2395105 425.61913818 106.83659546 425.64727783 98.17904663 C425.65731075 90.65080446 425.65731075 90.65080446 425.66334534 83.12255859 C425.6661418 79.7677618 425.6773902 76.41310723 425.69374084 73.05834961 C425.71432442 68.77837296 425.72048649 64.498603 425.71623099 60.21858144 C425.71712078 58.64830915 425.72306609 57.07802961 425.73465955 55.50779986 C425.74960654 53.38463908 425.74597606 51.26227873 425.73777771 49.13909912 C425.74054309 47.94998617 425.74330847 46.76087322 425.74615765 45.53572655 C425.18188561 40.53980776 423.53317314 37.31078852 419.81451416 33.95492554 C415.72826022 31.1259805 413.38219 31.13856267 408.38815022 31.12761784 C407.6568739 31.12466641 406.92559758 31.12171499 406.17216137 31.11867413 C403.69651498 31.10994125 401.22091508 31.1083987 398.74525452 31.10679626 C396.96247756 31.10206815 395.17970168 31.09691763 393.39692706 31.09137863 C388.47808105 31.07743652 383.55924246 31.06987879 378.64038169 31.06340563 C374.42628896 31.05704507 370.21220849 31.04697352 365.99812339 31.03684498 C352.11169746 31.00348347 338.22526408 30.98199295 324.33881119 30.96364513 C320.72447575 30.95885225 317.11014062 30.95386868 313.4958055 30.9488399 C291.06616571 30.91787156 268.63652336 30.89117736 246.20686817 30.87442112 C241.00894478 30.87047142 235.81102144 30.86646845 230.61309814 30.86239624 C228.67514461 30.8608837 228.67514461 30.8608837 226.69804051 30.8593406 C205.76099211 30.84232755 184.82406178 30.80121283 163.88707105 30.75037325 C142.40656855 30.69864165 120.92612683 30.66948474 99.44556254 30.66222423 C87.3788996 30.65755641 75.31243001 30.64274679 63.24582863 30.60247993 C52.97082022 30.56823398 42.69604003 30.55421858 32.42097781 30.56690408 C27.17649655 30.57274363 21.93249828 30.56877574 16.68808937 30.53873444 C11.8881525 30.51146305 7.08904384 30.51180166 2.28908928 30.53424489 C0.55147337 30.53747947 -1.18619711 30.53053182 -2.92372193 30.51244766 C-14.20884921 30.03240122 -14.20884921 30.03240122 -23.50345498 35.5899033 Z " fill="#285FCC" transform="translate(56.62298583984375,-0.267425537109375)"/>
<path d="M0 0 C53.92545978 -0.16121214 53.92545978 -0.16121214 76.48828125 -0.1953125 C92.07964325 -0.21906545 107.67091891 -0.24701913 123.26220703 -0.30175781 C134.61625557 -0.34160121 145.97023421 -0.36742706 157.32435071 -0.37635398 C163.33742194 -0.38157291 169.35029315 -0.39385603 175.36330032 -0.42292023 C181.02182217 -0.45004967 186.68006141 -0.45844989 192.33864212 -0.45243073 C194.41633642 -0.45353206 196.49404007 -0.46150047 198.57167816 -0.4768219 C201.40755924 -0.49671087 204.24237201 -0.49194295 207.07827759 -0.48101807 C207.90124537 -0.49266943 208.72421315 -0.5043208 209.57211936 -0.51632524 C214.84630112 -0.46137126 217.79223038 0.54437632 222 4 C225.79027905 8.31307616 226.12460568 11.88485026 226.12025452 17.51091003 C226.12153854 18.50465637 226.12153854 18.50465637 226.12284851 19.51847839 C226.12450617 21.74956943 226.11897606 23.98058572 226.11352539 26.21166992 C226.11321913 27.83402917 226.11335242 29.45638856 226.11389065 31.07874775 C226.11411672 35.42950616 226.10831426 39.78023715 226.10128021 44.13098907 C226.09559191 48.21122831 226.09531745 52.29146083 226.09460449 56.3717041 C226.08935389 68.31030638 226.07539278 80.24890353 226.0625 92.1875 C226.041875 118.855625 226.02125 145.52375 226 173 C151.42 173 76.84 173 0 173 C0 115.91 0 58.82 0 0 Z " fill="#FE405B" transform="translate(256,31)"/>
<path d="M0 0 C0.88825974 -0.00342407 1.77651947 -0.00684814 2.69169617 -0.01037598 C5.67749629 -0.01699689 8.66239896 0.00509543 11.64811707 0.0269165 C13.82139654 0.02814179 15.9946776 0.02760796 18.16795635 0.02545547 C23.99181858 0.02455184 29.81535255 0.04774735 35.63913727 0.07589722 C41.1024683 0.09866464 46.56571919 0.09974901 52.02909851 0.1026001 C68.01046529 0.12359555 83.9917709 0.1794401 99.97306824 0.23101807 C135.67494324 0.31351807 171.37681824 0.39601807 208.16056824 0.48101807 C208.16056824 114.99101807 208.16056824 229.50101807 208.16056824 347.48101807 C187.04056824 347.48101807 165.92056824 347.48101807 144.16056824 347.48101807 C144.16056824 347.15101807 144.16056824 346.82101807 144.16056824 346.48101807 C164.95056824 346.48101807 185.74056824 346.48101807 207.16056824 346.48101807 C207.16056824 289.39101807 207.16056824 232.30101807 207.16056824 173.48101807 C186.37056824 173.48101807 165.58056824 173.48101807 144.16056824 173.48101807 C145.48056824 171.83101807 146.80056824 170.18101807 148.16056824 168.48101807 C148.76086815 166.23538841 148.76086815 166.23538841 148.69181824 163.93414307 C148.69697449 163.08851807 148.70213074 162.24289307 148.70744324 161.37164307 C148.68424011 160.06453369 148.68424011 160.06453369 148.66056824 158.73101807 C148.67603699 157.87508057 148.69150574 157.01914307 148.70744324 156.13726807 C148.64950135 146.57685611 144.72790891 138.38327856 138.16056824 131.48101807 C128.77777251 123.78677741 120.13214236 122.02118869 108.26213074 122.08258057 C107.03199249 122.07971039 105.80185425 122.07684021 104.53443909 122.07388306 C101.94073525 122.07184791 99.34701587 122.07733916 96.75334167 122.08990479 C92.80539719 122.10593754 88.85848072 122.09005032 84.91056824 122.07086182 C82.38192016 122.07284488 79.85327273 122.07668986 77.32463074 122.08258057 C76.15453461 122.07650787 74.98443848 122.07043518 73.77888489 122.06417847 C62.82886482 122.15708005 53.6458412 124.2986661 45.16056824 131.48101807 C37.71205008 139.19496226 34.82867257 147.75218376 34.72306824 158.29351807 C34.71291687 159.02304688 34.7027655 159.75257568 34.69230652 160.50421143 C34.78575298 166.22221375 36.16298944 169.48343927 40.16056824 173.48101807 C21.02056824 173.48101807 1.88056824 173.48101807 -17.83943176 173.48101807 C-17.92972577 152.33207739 -18.0034101 131.18329277 -18.04668045 110.0342083 C-18.06730563 100.21432469 -18.09542542 90.39456935 -18.14118958 80.57476807 C-18.18105865 72.01581808 -18.2068649 63.45696099 -18.21578574 54.89792073 C-18.22100037 50.36594146 -18.2332557 45.83422793 -18.26235199 41.30233383 C-18.28952223 37.03582348 -18.29787354 32.7696881 -18.29186249 28.50309944 C-18.29296201 26.93819325 -18.30090651 25.37327439 -18.31625366 23.80844307 C-18.33620793 21.66872227 -18.33135268 19.5304101 -18.32044983 17.39065552 C-18.324137 16.19416822 -18.32782417 14.99768093 -18.33162308 13.76493645 C-17.57093171 8.68957594 -15.08060315 5.80544168 -11.64189625 2.1360817 C-7.70935859 -0.18637416 -4.48966501 -0.06305659 0 0 Z " fill="#CCEDFE" transform="translate(47.83943176269531,30.51898193359375)"/>
<path d="M0 0 C74.58 0 149.16 0 226 0 C226.061875 26.255625 226.12375 52.51125 226.1875 79.5625 C226.21481201 87.85189697 226.24212402 96.14129395 226.27026367 104.68188477 C226.28381348 114.80651855 226.28381348 114.80651855 226.28633118 119.54673767 C226.28912543 122.85649146 226.30036503 126.1661008 226.31672668 129.47581482 C226.33733312 133.70026961 226.34346809 137.92451492 226.33921683 142.14901531 C226.34010554 143.69770253 226.34603731 145.24639723 226.35764539 146.7950412 C226.372628 148.89162332 226.36894901 150.9873979 226.36076355 153.08399963 C226.36352893 154.2574421 226.36629431 155.43088457 226.36914349 156.6398859 C225.63960461 163.28048493 222.97728522 167.66082827 218 172 C215.6479994 173.1760003 214.26265599 173.12084541 211.64208984 173.11352539 C210.29091568 173.11341209 210.29091568 173.11341209 208.91244507 173.11329651 C207.93844757 173.10813522 206.96445007 173.10297394 205.9609375 173.09765625 C204.96494537 173.0962413 203.96895325 173.09482635 202.94277954 173.09336853 C199.75348947 173.08775936 196.56426894 173.0752053 193.375 173.0625 C191.21614685 173.05748618 189.05729259 173.05292307 186.8984375 173.04882812 C181.5989345 173.03778695 176.29947222 173.02103988 171 173 C171.48678223 172.07799805 171.97356445 171.15599609 172.47509766 170.20605469 C176.01845585 162.75626605 174.72350945 152.94797784 172.0390625 145.30859375 C167.93546805 136.19120908 162.10499835 129.50820417 152.8125 125.6875 C148.01214636 123.89587195 143.88973218 122.8770203 138.74755859 122.83886719 C137.69901703 122.82925964 136.65047546 122.8196521 135.57015991 122.80975342 C134.44099152 122.80550354 133.31182312 122.80125366 132.1484375 122.796875 C130.9792276 122.79117493 129.8100177 122.78547485 128.6053772 122.77960205 C126.12901717 122.77015541 123.65264458 122.76361941 121.17626953 122.75976562 C117.41025455 122.75009057 113.64479248 122.71907562 109.87890625 122.6875 C107.46875323 122.68096652 105.05859631 122.6757174 102.6484375 122.671875 C100.97290298 122.6533548 100.97290298 122.6533548 99.26351929 122.63446045 C87.47611926 122.66760017 77.98311116 125.51457159 69.24609375 133.62890625 C62.25843775 141.17697576 59.82167435 149.87324262 59.8125 159.9375 C59.79413086 160.99227539 59.79413086 160.99227539 59.77539062 162.06835938 C59.76304585 166.45898304 60.31232524 168.7808131 62 173 C41.54 173 21.08 173 0 173 C0 115.91 0 58.82 0 0 Z " fill="#00215A" transform="translate(256,204)"/>
<path d="M0 0 C1.34073103 -0.00256327 1.34073103 -0.00256327 2.70854753 -0.00517833 C5.67951554 -0.00845147 8.65025364 0.00249439 11.62120056 0.01345825 C13.76043187 0.01402284 15.89966357 0.01370488 18.03889465 0.01257324 C23.82953351 0.01200058 29.62008912 0.02374103 35.41070867 0.03772116 C41.46853412 0.05024281 47.52636159 0.05140015 53.584198 0.05377197 C65.04806524 0.05998252 76.51189424 0.07638761 87.97574466 0.09647095 C101.03011321 0.11884317 114.0844836 0.12982672 127.13886654 0.13986182 C153.98578299 0.16075418 180.83266282 0.19632586 207.67955017 0.24050903 C207.67955017 10.47050903 207.67955017 20.70050903 207.67955017 31.24050903 C203.62164688 31.24264656 203.62164688 31.24264656 199.48176575 31.24482727 C174.02461814 31.2606073 148.56762388 31.30388247 123.11056328 31.3725996 C110.02188627 31.40726674 96.93331476 31.4326074 83.84458923 31.43606567 C72.43771683 31.43910315 61.03103225 31.4595647 49.62423241 31.5010336 C43.58322717 31.52238468 37.5424891 31.53495324 31.50144577 31.52666283 C25.81651991 31.51913626 20.132136 31.53488936 14.44730949 31.56856918 C12.35997172 31.57681919 10.27258022 31.5765328 8.18524742 31.56710625 C5.33593609 31.55551156 2.48840894 31.57456115 -0.36076355 31.60127258 C-1.18762228 31.59059932 -2.01448101 31.57992607 -2.86639607 31.56892937 C-6.89947901 31.63951559 -9.53311823 31.99429623 -12.75543022 34.53046131 C-16.61386096 38.60705059 -17.56972229 41.21341167 -17.57771873 46.80720329 C-17.58416763 47.94705425 -17.59061652 49.08690521 -17.59726083 50.26129711 C-17.59416363 51.51400217 -17.59106642 52.76670723 -17.58787537 54.05737305 C-17.5916113 55.40123663 -17.59621259 56.74509804 -17.60160601 58.088956 C-17.61385851 61.78527285 -17.61357291 65.48149935 -17.61121726 69.17783189 C-17.61080966 73.16293122 -17.62184275 77.14800137 -17.6313324 81.13308716 C-17.6479555 88.94181546 -17.65344253 96.75051357 -17.65455715 104.55925809 C-17.65550697 110.9054168 -17.65961395 117.25156554 -17.6659584 123.5977211 C-17.6835741 141.58373385 -17.69279672 159.56972272 -17.69129746 177.55574416 C-17.69121754 178.52566676 -17.69113763 179.49558937 -17.6910553 180.49490356 C-17.69097354 181.46600811 -17.69089178 182.43711266 -17.69080754 183.43764462 C-17.68999446 199.17936995 -17.70913673 214.92099964 -17.73733203 230.6626973 C-17.76604338 246.81977704 -17.7798733 262.97681011 -17.77814448 279.13391602 C-17.77747999 288.20749138 -17.78299808 297.28096647 -17.80450058 306.35451889 C-17.82268936 314.07935896 -17.82707871 321.80405331 -17.81348173 329.5289055 C-17.80694048 333.47094735 -17.8068763 337.41270944 -17.82418823 341.35472488 C-17.83987331 344.96337566 -17.83710273 348.57152379 -17.81961997 352.18016197 C-17.81508063 354.10420092 -17.83024321 356.02825518 -17.84609926 357.95223415 C-17.81526803 366.34928499 -17.81526803 366.34928499 -13.32044983 373.24050903 C-8.43417681 377.48815403 -4.61587431 377.81803619 1.56330872 377.75949097 C2.44639902 377.76699222 3.32948933 377.77449347 4.23933995 377.78222203 C7.19214356 377.80248756 10.14417847 377.79439869 13.09703064 377.78640747 C15.21612304 377.79514308 17.33520884 377.80562882 19.45428467 377.81773376 C25.2037984 377.84561562 30.95309714 377.84899795 36.70266867 377.84801388 C42.71251851 377.85114107 48.72227125 377.87675529 54.73207092 377.8999939 C66.1110201 377.94057214 77.48991195 377.96089894 88.86892235 377.97396779 C101.82412649 377.98983162 114.77923296 378.02824469 127.73438048 378.06856108 C154.38274046 378.15098505 181.03109084 378.20426175 207.67955017 378.24050903 C207.67955017 388.14050903 207.67955017 398.04050903 207.67955017 408.24050903 C179.33277276 408.33318058 150.98603196 408.40452629 122.63913345 408.44775772 C109.47660916 408.46836606 96.31418083 408.49645379 83.15171814 408.54226685 C71.67675452 408.58218732 60.20186042 408.6079544 48.72682929 408.61686301 C42.65320461 408.62206888 36.57977879 408.63426889 30.50621796 408.66342926 C24.78365776 408.6906805 19.06137739 408.69893435 13.33875847 408.69293976 C11.24423385 408.69403565 9.14969939 408.7019313 7.05523109 408.71733093 C-8.59232868 408.82668807 -21.66517569 407.44637527 -34.32044983 397.24050903 C-45.55061565 385.6706071 -48.6259674 374.45283432 -48.58787537 358.71688843 C-48.59161466 357.33275122 -48.59621729 355.94861613 -48.60160601 354.56448436 C-48.61381704 350.77058341 -48.61357779 346.97677076 -48.61121726 343.18285465 C-48.61080861 339.08728241 -48.62185284 334.99173829 -48.6313324 330.8961792 C-48.64793308 322.87562902 -48.65344153 314.85510823 -48.65455715 306.8345423 C-48.65550809 300.31353655 -48.65962068 293.79254047 -48.6659584 287.27153778 C-48.68356847 268.77520265 -48.69279767 250.27889072 -48.69129746 231.78254715 C-48.69121754 230.78576441 -48.69113763 229.78898168 -48.6910553 228.76199341 C-48.69097354 227.76399077 -48.69089178 226.76598813 -48.69080754 225.73774299 C-48.68999476 209.56633 -48.70913095 193.39501018 -48.73733203 177.22362414 C-48.76607346 160.61103047 -48.77987162 143.99848222 -48.77814448 127.38586307 C-48.777481 118.06233965 -48.78295479 108.7389139 -48.80450058 99.4154129 C-48.82272896 91.47669257 -48.82704613 83.53811417 -48.81348173 75.59938195 C-48.80696036 71.55138854 -48.80680462 67.5036673 -48.82418823 63.45569992 C-48.83996116 59.74452266 -48.83701285 56.03383242 -48.81961997 52.32266673 C-48.81511768 50.35574161 -48.83017425 48.38880113 -48.84609926 46.42193532 C-48.7392808 32.62474519 -43.93065107 22.16957803 -34.69544983 12.05300903 C-25.08283183 2.8447459 -12.91280596 -0.09194971 0 0 Z " fill="#0089FE" transform="translate(48.32044982910156,-0.240509033203125)"/>
<path d="M0 0 C45.87 0 91.74 0 139 0 C147 54 147 54 149 73 C153.64255859 72.93039062 153.64255859 72.93039062 158.37890625 72.859375 C161.39068971 72.82814186 164.40245484 72.80387544 167.41430664 72.78027344 C169.50065239 72.76021087 171.58694227 72.7329541 173.6730957 72.69824219 C176.67933978 72.64948841 179.68483769 72.62697733 182.69140625 72.609375 C183.61772354 72.58872986 184.54404083 72.56808472 185.49842834 72.54681396 C191.5435326 72.54473945 195.06937165 73.43518892 200 77 C203.54525009 81.24178515 204.67564627 85.2779887 204.375 90.79296875 C203.63057157 95.17424027 202.0430619 98.54134928 198.36344719 101.16842222 C192.78138364 104.12851081 188.08191469 104.56854241 181.82861328 104.50793457 C180.33224681 104.51729451 180.33224681 104.51729451 178.80565071 104.52684355 C175.47696121 104.54274476 172.14900689 104.5301801 168.8203125 104.51757812 C166.42819798 104.52300049 164.0360868 104.53012379 161.64398193 104.53881836 C155.82965458 104.55514979 150.01555918 104.55277961 144.2012248 104.5411678 C139.4741595 104.53211967 134.74715205 104.53091541 130.02008057 104.53526306 C129.34628613 104.53587599 128.67249169 104.53648893 127.97827923 104.53712043 C126.60930934 104.53839938 125.24033946 104.53969624 123.8713696 104.5410108 C111.04644075 104.55240618 98.22162642 104.53931931 85.39671636 104.51780933 C74.40179003 104.49993926 63.40703265 104.50304366 52.41210938 104.52148438 C39.63184009 104.54290956 26.85167108 104.55130764 14.07138634 104.53903532 C12.70756405 104.53776118 11.34374175 104.53650369 9.97991943 104.53526306 C9.30896213 104.53464596 8.63800482 104.53402886 7.94671547 104.53339306 C3.22749359 104.52994509 -1.49166447 104.53575653 -6.21087646 104.54518127 C-12.56721317 104.55674306 -18.92323109 104.54870745 -25.27953339 104.52560425 C-27.61115744 104.520319 -29.94280836 104.52182774 -32.27442169 104.53065491 C-35.45951339 104.54160072 -38.64358633 104.52785728 -41.82861328 104.50793457 C-42.74924498 104.51685746 -43.66987667 104.52578034 -44.6184063 104.53497362 C-50.48473929 104.46389849 -55.15611637 103.45830653 -60 100 C-63.63733063 95.84905166 -64.66804287 91.6819731 -64.37890625 86.20703125 C-63.47617049 80.94882813 -61.27277204 77.91191614 -56.96459961 74.82519531 C-52.43753215 72.37047892 -48.17715478 72.49128597 -43.12890625 72.609375 C-42.206577 72.61503479 -41.28424774 72.62069458 -40.33396912 72.62652588 C-37.40960142 72.64878363 -34.48649269 72.69895953 -31.5625 72.75 C-29.57098133 72.77007873 -27.57944331 72.78832709 -25.58789062 72.8046875 C-20.72478083 72.8486136 -15.86260332 72.91756687 -11 73 C-10.34 67.39 -9.68 61.78 -9 56 C-6.03 37.52 -3.06 19.04 0 0 Z " fill="#004CB5" transform="translate(186,408)"/>
<path d="M0 0 C1.50839384 -0.00935994 1.50839384 -0.00935994 3.04726028 -0.01890898 C6.40902565 -0.03483413 9.77006549 -0.02223611 13.13183594 -0.00964355 C15.54512962 -0.01506486 17.95842 -0.02218756 20.3717041 -0.03088379 C26.24130195 -0.04722582 32.11071212 -0.04483937 37.98030472 -0.03323323 C42.75173877 -0.02419008 47.5231155 -0.0229787 52.29455566 -0.02732849 C52.97432504 -0.02794142 53.65409441 -0.02855436 54.35446286 -0.02918586 C55.73551402 -0.0304648 57.11656516 -0.03176165 58.49761629 -0.03307623 C71.43982568 -0.04447529 84.38192163 -0.03137894 97.32411242 -0.00987476 C108.42283747 0.00799565 119.52139516 0.00489135 130.62011719 -0.0135498 C143.51683176 -0.03496847 156.41344698 -0.04337672 169.31017685 -0.03110075 C170.68607329 -0.02982659 172.06196974 -0.0285691 173.43786621 -0.02732849 C174.11478744 -0.02671139 174.79170866 -0.02609429 175.48914266 -0.02545848 C180.2534062 -0.02200856 185.01760659 -0.02782619 189.78186035 -0.0372467 C196.19724868 -0.04965353 202.61239546 -0.04078732 209.02775574 -0.01766968 C211.38237483 -0.01238018 213.73702051 -0.01390042 216.09162903 -0.02272034 C219.30558588 -0.03364934 222.51852959 -0.01994297 225.73242188 0 C226.66443043 -0.00892289 227.59643898 -0.01784577 228.55669022 -0.02703905 C234.50152962 0.0445224 238.0063943 1.01883765 242.86621094 4.50793457 C246.41269208 8.74784517 247.54178186 12.78730553 247.24121094 18.30090332 C246.4967825 22.68217484 244.90927284 26.04928385 241.22965813 28.67635679 C235.64759458 31.63644538 230.94812562 32.07647698 224.69482422 32.01586914 C223.19845775 32.02522908 223.19845775 32.02522908 221.67186165 32.03477812 C218.34317215 32.05067933 215.01521783 32.03811467 211.68652344 32.0255127 C209.29440892 32.03093506 206.90229774 32.03805836 204.51019287 32.04675293 C198.69586552 32.06308436 192.88177012 32.06071418 187.06743574 32.04910237 C182.34037044 32.04005424 177.61336299 32.03884998 172.8862915 32.04319763 C172.21249706 32.04381056 171.53870262 32.0444235 170.84449017 32.045055 C169.47552028 32.04633395 168.1065504 32.04763081 166.73758054 32.04894537 C153.91265169 32.06034075 141.08783736 32.04725388 128.26292729 32.0257439 C117.26800097 32.00787383 106.27324359 32.01097823 95.27832031 32.02941895 C82.49805103 32.05084413 69.71788201 32.05924221 56.93759727 32.04696989 C55.57377499 32.04569575 54.20995269 32.04443826 52.84613037 32.04319763 C52.17517306 32.04258053 51.50421576 32.04196343 50.81292641 32.04132763 C46.09370453 32.03787966 41.37454647 32.0436911 36.65533447 32.05311584 C30.29899777 32.06467763 23.94297985 32.05664202 17.58667755 32.03353882 C15.2550535 32.02825357 12.92340258 32.02976231 10.59178925 32.03858948 C7.40669755 32.04953529 4.22262461 32.03579185 1.03759766 32.01586914 C-0.34334989 32.02925347 -0.34334989 32.02925347 -1.75219536 32.04290819 C-7.61852835 31.97183306 -12.28990543 30.9662411 -17.13378906 27.50793457 C-20.7711197 23.35698623 -21.80183194 19.18990768 -21.51269531 13.71496582 C-20.61165553 8.46664129 -18.412062 5.42566841 -14.11480713 2.34046173 C-9.51565985 -0.14692535 -5.13062134 -0.04911967 0 0 Z " fill="#285FCC" transform="translate(143.1337890625,480.4920654296875)"/>
<path d="M0 0 C1.22493668 -0.00524185 2.44987335 -0.0104837 3.71192932 -0.0158844 C6.2894719 -0.02227698 8.86704376 -0.02100369 11.44458008 -0.01245117 C15.36397777 -0.00393867 19.28191762 -0.03274912 23.20117188 -0.06445312 C25.71744748 -0.06606545 28.23372565 -0.06548701 30.75 -0.0625 C31.90866074 -0.07373398 33.06732147 -0.08496796 34.26109314 -0.09654236 C45.89000798 0.0019079 54.40743853 2.94318612 62.78125 11.078125 C71.09766734 20.14647881 73.55646635 30.09529229 73.3046875 42.2734375 C72.81780737 46.50877111 71.88565956 48.40274476 68.94140625 51.43359375 C66.64660488 52.58099443 65.33865472 52.56874542 62.78630066 52.5874939 C61.91570511 52.59609436 61.04510956 52.60469482 60.14813232 52.61355591 C59.19070129 52.61781586 58.23327026 52.62207581 57.24682617 52.62646484 C55.73687828 52.63873108 55.73687828 52.63873108 54.19642639 52.65124512 C50.85491537 52.67612084 47.51344687 52.69261999 44.171875 52.70703125 C43.03256342 52.71235493 41.89325184 52.7176786 40.71941566 52.7231636 C34.69014788 52.74990356 28.66090087 52.76927652 22.6315918 52.78369141 C16.39688123 52.80034899 10.16269826 52.84513425 3.92818737 52.89606285 C-0.85960006 52.92967961 -5.64726136 52.94126273 -10.43515587 52.94691849 C-12.73371097 52.95364543 -15.03225737 52.96890465 -17.33069801 52.9928093 C-20.5461826 53.02434557 -23.76023214 53.02451458 -26.97583008 53.01708984 C-28.40286758 53.04169785 -28.40286758 53.04169785 -29.85873413 53.06680298 C-34.45641668 53.02329519 -36.40689125 52.94589092 -40.12626648 50.02212524 C-44.36545357 44.34334119 -43.55022491 38.30950567 -43.05859375 31.43359375 C-40.72265491 19.35345291 -35.89629662 12.05378577 -26.01171875 4.9765625 C-17.59601739 0.57946986 -9.36375269 -0.02368308 0 0 Z " fill="#FFD82D" transform="translate(358.05859375,151.56640625)"/>
<path d="M0 0 C1.2253949 -0.00902847 2.45078979 -0.01805695 3.71331787 -0.02735901 C6.29859998 -0.04182266 8.88391837 -0.05073854 11.46923828 -0.05444336 C15.39549374 -0.06632641 19.32016993 -0.11554439 23.24609375 -0.16601562 C25.76822157 -0.17548277 28.29035895 -0.18271641 30.8125 -0.1875 C32.55216034 -0.21679848 32.55216034 -0.21679848 34.32696533 -0.24668884 C45.7455454 -0.18441712 54.99112514 3.2981034 63.265625 11.2578125 C70.3773829 19.14195395 72.54052439 26.97595035 72.609375 37.43359375 C72.64224609 38.31853516 72.67511719 39.20347656 72.70898438 40.11523438 C72.71607422 40.97439453 72.72316406 41.83355469 72.73046875 42.71875 C72.75065063 43.8790271 72.75065063 43.8790271 72.77124023 45.06274414 C71.82171755 48.7196635 70.14654441 50.06512228 67.171875 52.37109375 C63.82853767 53.10705873 60.54901537 53.04434321 57.13671875 53.00219727 C56.12964874 53.00935257 55.12257874 53.01650787 54.08499146 53.02388 C50.75932317 53.04077522 47.43500127 53.02135851 44.109375 53 C41.79679248 53.00082862 39.48421003 53.00328772 37.17163086 53.00730896 C32.32615419 53.01016754 27.4811396 52.99545912 22.63574219 52.96801758 C16.42463906 52.93393536 10.21436228 52.9399528 4.0032196 52.95868015 C-0.77175788 52.96924852 -5.54654308 52.96031367 -10.32150269 52.94529533 C-12.61163767 52.9401119 -14.90179271 52.94059726 -17.19192505 52.94684029 C-20.39271224 52.95229028 -23.59231635 52.93192287 -26.79296875 52.90454102 C-27.73961395 52.91106689 -28.68625916 52.91759277 -29.66159058 52.92431641 C-33.86808043 52.86312502 -36.2254693 52.73406803 -39.89282227 50.5252533 C-44.50499773 45.39150257 -43.38662118 37.07513856 -43.05029297 30.52441406 C-42.15413225 21.83854861 -37.33443005 14.01997875 -30.828125 8.37109375 C-20.95939089 1.14692237 -11.94683346 0.05485822 0 0 Z " fill="#FE405C" transform="translate(124.828125,151.62890625)"/>
<path d="M0 0 C1.17958786 -0.00524185 2.35917572 -0.0104837 3.57450867 -0.0158844 C6.05967424 -0.02228139 8.54487019 -0.02099789 11.0300293 -0.01245117 C14.80247812 -0.00395521 18.57340401 -0.03271592 22.34570312 -0.06445312 C24.77213497 -0.06606589 27.19856946 -0.06548617 29.625 -0.0625 C30.73788895 -0.07373398 31.85077789 -0.08496796 32.99739075 -0.09654236 C44.69413005 0.00589229 55.12272059 2.97801624 63.51171875 11.43359375 C70.19998418 19.58858405 73.04479326 27.64474137 73.01171875 38.12109375 C73.04007812 38.94931641 73.0684375 39.77753906 73.09765625 40.63085938 C73.10152344 41.83838867 73.10152344 41.83838867 73.10546875 43.0703125 C73.11255859 43.78920654 73.11964844 44.50810059 73.12695312 45.2487793 C72.12451891 48.80861414 70.42206929 50.17440482 67.51171875 52.43359375 C64.13305943 53.17153182 60.81613607 53.10678917 57.36889648 53.06469727 C56.35046661 53.07185257 55.33203674 53.07900787 54.28274536 53.08638 C50.91981008 53.10327481 47.55820621 53.08386006 44.1953125 53.0625 C41.85791412 53.06332855 39.5205158 53.06578743 37.18312073 53.06980896 C32.28637132 53.07266743 27.39007919 53.05795904 22.4934082 53.03051758 C16.21270742 52.99641653 9.93282341 53.00245917 3.6520834 53.02118015 C-1.17346521 53.0317411 -5.99882329 53.02282075 -10.82435417 53.00779533 C-13.14043551 53.00260772 -15.45653669 53.00310231 -17.77261543 53.00934029 C-21.00713125 53.01478208 -24.24047158 52.99444995 -27.47485352 52.96704102 C-28.43444473 52.97356689 -29.39403595 52.98009277 -30.38270569 52.98681641 C-36.87094313 52.89318618 -36.87094313 52.89318618 -40.05162048 50.5252533 C-44.23834431 44.42972883 -43.03811239 35.60080437 -42.48828125 28.43359375 C-40.77629993 19.36471976 -34.50643993 12.43662873 -27.44140625 6.80078125 C-18.80968787 1.03479337 -10.19355632 -0.02674318 0 0 Z " fill="#FB651D" transform="translate(124.48828125,325.56640625)"/>
<path d="M0 0 C22.77 0 45.54 0 69 0 C70.27875 8.518125 71.5575 17.03625 72.875 25.8125 C73.27444824 28.45870361 73.67389648 31.10490723 74.08544922 33.83129883 C74.40885209 35.99816139 74.73195029 38.16506945 75.0546875 40.33203125 C75.29844116 41.93516174 75.29844116 41.93516174 75.54711914 43.57067871 C77.00044234 53.37465408 77.95907574 63.11121956 79 73 C52.93 73 26.86 73 0 73 C0 48.91 0 24.82 0 0 Z " fill="#182B80" transform="translate(256,408)"/>
<path d="M0 0 C1.57269905 -0.01441132 1.57269905 -0.01441132 3.1771698 -0.02911377 C4.30117691 -0.03336365 5.42518402 -0.03761353 6.58325195 -0.04199219 C8.33494438 -0.0505423 8.33494438 -0.0505423 10.12202454 -0.05926514 C12.59240822 -0.06870309 15.06280442 -0.07524433 17.53320312 -0.07910156 C21.29034734 -0.0887868 25.04693962 -0.11981427 28.80395508 -0.15136719 C31.2095508 -0.15789986 33.61515043 -0.16314929 36.02075195 -0.16699219 C37.69158089 -0.18551239 37.69158089 -0.18551239 39.39616394 -0.20440674 C51.33052835 -0.17075207 60.81500435 2.77334689 69.6105957 11.01269531 C77.02027575 18.92686421 79.74547031 27.44560279 79.8840332 38.16113281 C79.90981445 39.35738281 79.9355957 40.55363281 79.9621582 41.78613281 C79.58071101 45.70958968 78.43999227 48.35517374 75.6340332 51.16113281 C74.23932149 51.26738257 72.8393157 51.30517093 71.44059753 51.31503296 C70.53627487 51.32363342 69.63195221 51.33223389 68.70022583 51.34109497 C67.20022537 51.34748489 67.20022537 51.34748489 65.66992188 51.35400391 C64.09926216 51.36627014 64.09926216 51.36627014 62.49687195 51.37878418 C59.01525454 51.40369378 55.53367804 51.4201679 52.05200195 51.43457031 C50.27359138 51.44255583 50.27359138 51.44255583 48.45925331 51.45070267 C42.18475617 51.47745771 35.91027909 51.49682558 29.63574219 51.51123047 C23.14196235 51.52788926 16.64868895 51.57267131 10.15510082 51.62360191 C5.17348115 51.65719546 0.19198284 51.66879928 -4.78973961 51.67445755 C-7.18401652 51.68119125 -9.57828487 51.69646776 -11.97245216 51.72034836 C-15.31994974 51.75183408 -18.66606618 51.75206116 -22.01367188 51.74462891 C-23.00759949 51.76103424 -24.0015271 51.77743958 -25.02557373 51.79434204 C-31.71888168 51.73334374 -31.71888168 51.73334374 -34.9797821 48.84976196 C-36.76746397 45.38239315 -36.97025839 42.35229816 -36.8659668 38.53613281 C-36.85388184 37.82972656 -36.84179688 37.12332031 -36.8293457 36.39550781 C-36.39325607 24.76645099 -31.49764328 15.74936144 -23.0534668 7.91113281 C-16.31248067 2.42567403 -8.60744331 0.06401868 0 0 Z " fill="#01E9CC" transform="translate(351.365966796875,325.8388671875)"/>
<path d="M0 0 C1.80106705 -0.00087616 1.80106705 -0.00087616 3.63851929 -0.00177002 C6.91307076 0.00053076 10.18692859 0.02051899 13.46134257 0.04852581 C16.88993329 0.07361873 20.31853926 0.07588764 23.74720764 0.08062744 C30.23176835 0.09303419 36.71605764 0.12582421 43.20049912 0.1660254 C50.58621405 0.21081516 57.9719423 0.23274819 65.35775936 0.25280714 C80.54345093 0.29455928 95.72879022 0.3678824 110.91430664 0.45410156 C110.91430664 10.68410156 110.91430664 20.91410156 110.91430664 31.45410156 C95.14564023 31.54450228 79.37718015 31.61814173 63.60832977 31.66135025 C56.28607384 31.6819487 48.9639907 31.71001693 41.6418457 31.75585938 C35.25757429 31.79581083 28.87342808 31.82155413 22.48903513 31.83045554 C19.11054893 31.83565636 15.73242078 31.84782241 12.35404968 31.87702179 C8.57639411 31.90609556 4.79947813 31.9100557 1.02172852 31.90820312 C-0.64631332 31.92977478 -0.64631332 31.92977478 -2.34805298 31.95178223 C-8.69434833 31.91814821 -13.88010186 31.3382094 -19.08569336 27.45410156 C-22.71483362 23.28970929 -23.75424493 19.14570715 -23.46459961 13.66113281 C-22.57371416 8.47195469 -20.37112393 5.41732987 -16.18870544 2.28326416 C-11.05773658 -0.48913311 -5.69458457 -0.07279672 0 0 Z " fill="#0088FE" transform="translate(145.085693359375,480.5458984375)"/>
<path d="M0 0 C0.598125 0.37125 1.19625 0.7425 1.8125 1.125 C2.84375 1.7025 3.875 2.28 4.9375 2.875 C12.6554999 8.91517383 17.83226035 16.44797984 19.8125 26.125 C20.82455335 37.21866178 17.84982319 46.52027301 10.8125 55.125 C4.52122506 62.10610772 -2.56260158 65.55247624 -11.91015625 66.50390625 C-19.55554378 66.74115051 -25.6700417 66.25614483 -32.1875 62.125 C-32.88359375 61.68929687 -33.5796875 61.25359375 -34.296875 60.8046875 C-41.34007936 55.95917473 -46.64474744 49.36894607 -49.1875 41.125 C-50.70525654 31.34896026 -50.21769676 21.23860019 -45.078125 12.640625 C-34.76071793 -1.08749515 -16.10124481 -8.78249717 0 0 Z " fill="#FD9833" transform="translate(388.1875,254.875)"/>
<path d="M0 0 C7.6540962 6.27408257 12.42702346 13.33887436 13.48046875 23.30859375 C13.79972109 33.46287801 12.43102496 42.05548782 5.8515625 50.03515625 C-1.68614376 57.86154062 -9.26713036 62.72349939 -20.3359375 63.09765625 C-30.61743432 62.75350573 -39.17596825 59.15199233 -46.65234375 52.05859375 C-54.24793091 43.72058077 -56.28849179 35.1699456 -56.17578125 24.07421875 C-55.49918079 15.89783578 -51.586386 8.57419619 -45.8984375 2.72265625 C-31.83787697 -8.59250286 -15.07999571 -10.8437425 0 0 Z " fill="#FECB99" transform="translate(160.8984375,84.27734375)"/>
<path d="M0 0 C6.19546224 4.74805075 10.53898887 12.32300521 12.9140625 19.68359375 C14.3348289 31.64066322 12.81352287 40.67080135 5.9140625 50.68359375 C0.00816327 57.95531121 -8.61958888 62.03514032 -17.83984375 63.12890625 C-28.80492982 63.46084629 -36.11739679 61.48800039 -44.4609375 54.37109375 C-51.48949574 47.62851754 -56.13584704 39.17201296 -56.3984375 29.24609375 C-55.88539161 17.44603819 -52.4147784 9.58552371 -43.8359375 1.37109375 C-30.68775662 -9.57116309 -14.18167964 -8.9498615 0 0 Z " fill="#FFCC99" transform="translate(161.0859375,258.31640625)"/>
<path d="M0 0 C8.56672781 7.05020726 13.70048588 14.80012617 15.140625 25.89453125 C15.63128775 35.77109757 12.16875131 44.99795455 5.8046875 52.48828125 C-1.25900514 59.51017689 -9.65040116 63.4957315 -19.61328125 63.83203125 C-30.32958245 63.44451549 -38.21730198 59.64090186 -46.17578125 52.45703125 C-53.3951899 44.05600282 -54.77566946 35.26891065 -54.4765625 24.3984375 C-53.69251189 14.12431983 -48.7263702 7.27068272 -41.17578125 0.45703125 C-29.20740425 -8.0003632 -12.07556624 -8.5634626 0 0 Z " fill="#FF9833" transform="translate(393.17578125,83.54296875)"/>
<path d="M0 0 C6.8371875 -0.12375 6.8371875 -0.12375 13.8125 -0.25 C15.22635986 -0.28641602 16.64021973 -0.32283203 18.09692383 -0.36035156 C30.42289026 -0.46742125 38.93205327 1.99084573 47.83984375 10.64453125 C56.15626109 19.71288506 58.6150601 29.66169854 58.36328125 41.83984375 C57.87640112 46.07517736 56.94425331 47.96915101 54 51 C51.49450555 52.25274723 49.80264368 52.12029624 46.99951172 52.11352539 C45.94401123 52.11340454 44.88851074 52.11328369 43.80102539 52.11315918 C42.68848389 52.10804321 41.57594238 52.10292725 40.4296875 52.09765625 C39.4094751 52.09664917 38.3892627 52.09564209 37.33813477 52.09460449 C33.51707845 52.08936163 29.69603813 52.07540043 25.875 52.0625 C17.33625 52.041875 8.7975 52.02125 0 52 C0 34.84 0 17.68 0 0 Z " fill="#FDBE00" transform="translate(373,152)"/>
<path d="M0 0 C1.20804794 0.00424484 2.41609589 0.00848969 3.66075134 0.01286316 C7.49151587 0.02955781 11.32174017 0.06719401 15.15234375 0.10546875 C17.76106007 0.12052744 20.3697847 0.13421377 22.97851562 0.14648438 C29.34914038 0.1794312 35.71945345 0.22953861 42.08984375 0.29296875 C42.08984375 0.62296875 42.08984375 0.95296875 42.08984375 1.29296875 C33.17984375 1.29296875 24.26984375 1.29296875 15.08984375 1.29296875 C15.08984375 17.79296875 15.08984375 34.29296875 15.08984375 51.29296875 C7.45400967 51.36176005 -0.18075355 51.42151962 -7.81665039 51.45776367 C-10.41532022 51.47286938 -13.01396448 51.49335509 -15.61254883 51.51928711 C-19.34332583 51.55559118 -23.07376638 51.57267733 -26.8046875 51.5859375 C-28.55323784 51.60916328 -28.55323784 51.60916328 -30.33711243 51.63285828 C-31.41800644 51.63308487 -32.49890045 51.63331146 -33.61254883 51.63354492 C-34.56519119 51.64020676 -35.51783356 51.64686859 -36.49934387 51.6537323 C-39.34741792 51.22753518 -40.18106727 50.54484891 -41.91015625 48.29296875 C-44.88878933 42.33570258 -43.55107368 31.68809892 -42.33203125 25.23046875 C-38.93881747 15.60608058 -30.94265659 7.75897096 -21.91015625 3.29296875 C-14.6489656 0.06395747 -7.85731219 -0.10518834 0 0 Z " fill="#FF9103" transform="translate(124.91015625,325.70703125)"/>
<path d="M0 0 C4.5375 -0.103125 9.075 -0.20625 13.75 -0.3125 C15.85713379 -0.38078003 15.85713379 -0.38078003 18.00683594 -0.45043945 C30.03535603 -0.5813311 39.34857896 2.47424444 48.09375 10.88671875 C55.2055079 18.7708602 57.36864939 26.6048566 57.4375 37.0625 C57.47037109 37.94744141 57.50324219 38.83238281 57.53710938 39.74414062 C57.54419922 40.60330078 57.55128906 41.46246094 57.55859375 42.34765625 C57.57204834 43.12117432 57.58550293 43.89469238 57.59936523 44.69165039 C56.61455079 48.48448972 55.21905698 49.75151296 52 52 C48.04042356 52.68919465 44.14513612 52.58173299 40.13671875 52.48828125 C38.61093201 52.48072815 38.61093201 52.48072815 37.05432129 52.47302246 C33.26509297 52.44691904 29.47626734 52.3771118 25.6875 52.3125 C12.9721875 52.1578125 12.9721875 52.1578125 0 52 C0 34.84 0 17.68 0 0 Z " fill="#C1126B" transform="translate(140,152)"/>
<path d="M0 0 C5.094375 0.0825 10.18875 0.165 15.4375 0.25 C15.4375 16.75 15.4375 33.25 15.4375 50.25 C7.81937394 50.36473081 0.20423893 50.46429514 -7.4140625 50.5246582 C-10.00596263 50.54981755 -12.59779172 50.58394851 -15.18945312 50.62719727 C-18.91293861 50.68778231 -22.63548695 50.71619646 -26.359375 50.73828125 C-28.10018341 50.77699089 -28.10018341 50.77699089 -29.87615967 50.81648254 C-37.88850076 50.81928218 -37.88850076 50.81928218 -41.29199219 47.94458008 C-42.93117836 44.46808166 -43.16557173 41.39652911 -43.0625 37.625 C-43.05041504 36.91859375 -43.03833008 36.2121875 -43.02587891 35.484375 C-42.58978928 23.85531818 -37.69417648 14.83822863 -29.25 7 C-19.98348532 -0.21650568 -11.39468861 -0.26118968 0 0 Z " fill="#79FDE3" transform="translate(357.5625,326.75)"/>
<path d="M0 0 C0 22.77 0 45.54 0 69 C-10.41954842 69 -17.32797241 66.04078481 -25 59 C-33.18209799 49.91083685 -34.84341704 41.62362257 -34.46875 29.75 C-33.84614842 21.01974222 -30.01408282 14.58562 -23.8125 8.5625 C-16.13588094 2.37209507 -9.90353385 0 0 0 Z " fill="#FCA44D" transform="translate(373,252)"/>
<path d="M0 0 C0 22.44 0 44.88 0 68 C1.98 68 3.96 68 6 68 C6 68.33 6 68.66 6 69 C-5.82509817 69.60699173 -14.04088222 67.54680932 -23.51171875 60.24609375 C-30.25640876 54.15787278 -33.54089587 47.23699015 -34.3359375 38.16796875 C-34.46053359 25.47162708 -32.38148769 17.5703273 -23.44140625 8.203125 C-16.10699084 1.58454854 -9.77580741 0 0 0 Z " fill="#FFA54D" transform="translate(373,78)"/>
<path d="M0 0 C9.25065688 0 17.61183703 2.72030952 24.47265625 9.1953125 C32.53806973 18.72528956 35.26638812 28.52079547 34.32861328 40.77978516 C33.07933642 49.22029314 28.03607887 57.44170219 21.3046875 62.6015625 C14.13007793 66.95496967 8.4556376 69 0 69 C0 46.23 0 23.46 0 0 Z " fill="#FFB367" transform="translate(140,252)"/>
<path d="M0 0 C10.3037086 0 17.29828395 2.24322449 24.9375 9.25 C32.26644715 17.27779541 34.48729468 26.48870119 34.2734375 37.06640625 C33.61178711 46.58471973 29.94486682 53.56226342 23 60 C15.29225282 66.69396225 10.57315646 68 0 68 C0 45.56 0 23.12 0 0 Z " fill="#FEB366" transform="translate(140,78)"/>
</svg>
